<svg width="510" height="315" viewBox="0 0 510 315" fill="none" xmlns="http://www.w3.org/2000/svg">
<path d="M314.765 1H1V314H314.765M314.765 1V314M314.765 1H509V194.762M314.765 1V194.762H509M314.765 314V239.476M509 194.762H389.471V314M509 194.762V314H389.471M389.471 314V239.476" stroke="white" stroke-width="1.5"/>
<path d="M1.89197 314C-9.53274 209.667 88.4567 1 315.169 1C453.945 8.14647 509 123.556 509 195.374C509 239.868 486.867 290.618 425.329 305.802C390.218 314.466 379.759 258.852 365.565 291.643C357.141 311.103 331.094 282.7 338.671 254.381C343.855 235.005 352.599 228.249 365.565 230.533C376.024 232.376 375.37 243.202 370.794 248.419C361.348 259.188 337.176 244.693 338.671 225.317C338.671 223.578 339.567 219.951 343.153 219.355C347.635 218.61 344.647 228.298 331.947 226.807" stroke="white" stroke-width="1.5"/>
</svg>
