<svg width="28" height="28" viewBox="0 0 28 28" fill="none" xmlns="http://www.w3.org/2000/svg">
<path d="M8.46401 21.5755L9.30952 22.0685C10.7221 22.8922 12.3274 23.332 14.0026 23.332C19.1573 23.332 23.336 19.1534 23.336 13.9987C23.336 8.84404 19.1573 4.66536 14.0026 4.66536C8.84794 4.66536 4.66927 8.84404 4.66927 13.9987C4.66927 15.6744 5.10937 17.2803 5.93356 18.6931L6.42634 19.5378L5.66394 22.3397L8.46401 21.5755ZM2.34081 25.6654L3.9181 19.8688C2.91222 18.1446 2.33594 16.1389 2.33594 13.9987C2.33594 7.55537 7.55928 2.33203 14.0026 2.33203C20.4459 2.33203 25.6693 7.55537 25.6693 13.9987C25.6693 20.442 20.4459 25.6654 14.0026 25.6654C11.8631 25.6654 9.85806 25.0895 8.13413 24.0842L2.34081 25.6654ZM9.7925 8.52508C9.94869 8.5141 10.1054 8.51242 10.2618 8.52005C10.325 8.52421 10.3879 8.53151 10.4508 8.53878C10.6366 8.56023 10.8409 8.67339 10.9096 8.82913C11.2577 9.61829 11.5954 10.412 11.9227 11.2099C11.9949 11.3861 11.9514 11.6144 11.814 11.8353C11.7442 11.9486 11.6346 12.1075 11.5077 12.27C11.3757 12.4389 11.0918 12.7493 11.0918 12.7493C11.0918 12.7493 10.9767 12.8872 11.0201 13.0588C11.037 13.1237 11.0909 13.2182 11.1397 13.2976C11.1668 13.3416 11.1919 13.3809 11.2082 13.4081C11.5068 13.9066 11.9081 14.412 12.3983 14.8872C12.5388 15.0234 12.6751 15.1623 12.8216 15.2914C13.368 15.7731 13.9861 16.1667 14.6536 16.4583L14.6596 16.4609C14.7582 16.5034 14.8088 16.5266 14.9531 16.5879C15.0259 16.6187 15.1003 16.6453 15.1768 16.6655C15.2044 16.6727 15.2328 16.6768 15.2612 16.6788C15.4499 16.6901 15.559 16.5691 15.6055 16.5134C16.4496 15.4909 16.5268 15.4241 16.5327 15.4246V15.4265C16.6436 15.3096 16.818 15.269 16.9737 15.2785C17.0447 15.2828 17.1154 15.2965 17.18 15.326C17.8005 15.609 18.8149 16.0505 18.8149 16.0505L19.4933 16.3555C19.6069 16.4103 19.7107 16.5395 19.7157 16.665C19.7187 16.743 19.7271 16.869 19.6992 17.0996C19.6627 17.4014 19.5709 17.7648 19.4797 17.9552C19.4155 18.0888 19.3324 18.2073 19.2358 18.3077C19.1048 18.4437 19.0075 18.5263 18.85 18.6437C18.7541 18.7151 18.7044 18.7487 18.7044 18.7487C18.5424 18.8509 18.451 18.902 18.2579 19.0047C17.9576 19.1647 17.6258 19.2566 17.286 19.2741C17.0693 19.2852 16.8533 19.3008 16.6368 19.2892C16.6273 19.2886 15.9739 19.1883 15.9739 19.1883C14.3151 18.7519 12.7809 17.9346 11.4935 16.801C11.2303 16.5693 10.9862 16.3186 10.7371 16.0706C9.69982 15.038 8.91458 13.9245 8.43843 12.8712C8.20363 12.3518 8.05495 11.7956 8.0526 11.2232C8.0483 10.5151 8.28012 9.82577 8.71143 9.2642C8.79646 9.1535 8.87716 9.03867 9.0164 8.9072C9.16385 8.76796 9.2577 8.69321 9.35879 8.64149C9.49354 8.57256 9.64155 8.53569 9.7925 8.52508Z" fill="white"/>
</svg>
