<svg width="28" height="28" viewBox="0 0 28 28" fill="none" xmlns="http://www.w3.org/2000/svg">
<path d="M14.2872 4.66797C14.9103 4.6714 16.4693 4.68647 18.1257 4.75282L18.713 4.77843C20.3808 4.85739 22.0471 4.99228 22.8736 5.22272C23.976 5.53241 24.8425 6.43605 25.1353 7.58151C25.6016 9.40045 25.6599 12.9506 25.6672 13.8097L25.6682 13.9878V14.0003C25.6682 14.0003 25.6682 14.0046 25.6682 14.0129L25.6672 14.1909C25.6599 15.05 25.6016 18.6002 25.1353 20.4191C24.8384 21.5688 23.9719 22.4725 22.8736 22.7779C22.0471 23.0083 20.3808 23.1432 18.713 23.2222L18.1257 23.2477C16.4693 23.3141 14.9103 23.3292 14.2872 23.3327L14.0137 23.3336H14.0016C14.0016 23.3336 13.9975 23.3336 13.9894 23.3336L13.7162 23.3327C12.3974 23.3254 6.88328 23.2658 5.12953 22.7779C4.02714 22.4682 3.16068 21.5646 2.86779 20.4191C2.4015 18.6002 2.34322 15.05 2.33594 14.1909V13.8097C2.34322 12.9506 2.4015 9.40045 2.86779 7.58151C3.16474 6.43181 4.0312 5.52818 5.12953 5.22272C6.88328 4.73474 12.3974 4.67523 13.7162 4.66797H14.2872ZM11.6682 9.91697V18.0836L18.6682 14.0003L11.6682 9.91697Z" fill="white"/>
</svg>
